<svg width="75" height="82" viewBox="0 0 75 82" fill="none" xmlns="http://www.w3.org/2000/svg">
<g clip-path="url(#clip0_1_31)">
<path d="M37.7561 0.407043C17.2281 0.407043 0.529572 18.5413 0.529572 40.8302C0.529572 63.1192 17.2281 81.2534 37.7561 81.2534C58.2841 81.2534 74.9826 63.1192 74.9826 40.8302C74.9826 18.5413 58.2841 0.407043 37.7561 0.407043ZM37.7561 77.8849C18.9398 77.8849 3.63173 61.2623 3.63173 40.8302C3.63173 20.3982 18.9398 3.77559 37.7561 3.77559C56.5724 3.77559 71.8805 20.3982 71.8805 40.8302C71.8805 61.2623 56.5724 77.8849 37.7561 77.8849Z" fill="white"/>
<path d="M52.5556 39.414L30.8402 24.2553C30.3646 23.9182 29.7496 23.9 29.2588 24.1928C28.7589 24.4889 28.4499 25.0548 28.4499 25.6715V55.9889C28.4499 56.6057 28.7589 57.1716 29.2588 57.4677C29.489 57.6043 29.7465 57.6733 30.001 57.6733C30.2918 57.6733 30.5857 57.5844 30.8402 57.4052L52.5556 42.2465C52.998 41.9373 53.2676 41.4026 53.2676 40.8302C53.2676 40.2578 52.998 39.7233 52.5556 39.414ZM31.552 52.9032V28.7573L48.8475 40.8302L31.552 52.9032Z" fill="white"/>
</g>
<defs>
<clipPath id="clip0_1_31">
<rect width="74.453" height="80.8464" fill="white" transform="translate(0.529572 0.407043)"/>
</clipPath>
</defs>
</svg>
